<svg xmlns="http://www.w3.org/2000/svg" width="616" height="588" viewBox="0 0 616 588">
    <g fill="none">
        <path fill="#243746" d="M0 255.361L0 241.92 169.524 248.638 181.273 0 306.901 10.082 306.901 114.248 337.374 127.678 353.612 137.76 396.121 139.437 417.937 156.525 448.151 156.525 473.328 156.525 501.861 156.525 528.72 146.16 584.111 169.678 584.111 255.361 602.571 275.52 602.571 302.268 616 302.268 616 335.997 602.571 380.504 562.289 396.48 528.72 425.04 475.009 451.916 441.439 488.881 433.047 529.199 438.083 566.159 448.151 588 433.047 588 406.188 588 353.33 561.117 332.337 509.04 308 485.517 266.878 404.881 243.382 380.221 194.702 380.221 181.273 380.221 171.205 406.557 157.776 423.357 129.554 401.522 93.992 380.786 82.244 362.88 87.28 351.121 75.532 327.597 53.711 302.268 31.889 293.997 26.858 275.52 11.748 265.438z"/>
        <path fill="#FFF" d="M214 258.25L203.5 252 193 258.25 193 270.75 203.5 277 214 270.75z"/>
    </g>
</svg>
