<svg xmlns="http://www.w3.org/2000/svg" width="253" height="78" viewBox="0 0 253 78">
    <g fill="none" fill-rule="evenodd">
        <path fill="#1A1919" d="M6.53 25.113c-2.18.666-4.358 1.35-6.53 2.053v-7.49c6.788-2.197 13.62-4.212 20.488-6.046v7.49c-2.198.587-4.392 1.192-6.582 1.816v50.769c-2.464.701-4.923 1.428-7.376 2.177V25.113M38.697 16.7c-2.217.484-4.43.987-6.64 1.51v-7.49c6.906-1.632 13.844-3.081 20.807-4.35v7.49c-2.228.406-4.454.831-6.677 1.274v50.767c-2.5.5-4.997 1.02-7.49 1.567V16.699M72.98 3.22v50.767c2.128-.28 4.259-.542 6.392-.788V2.431c2.525-.292 5.053-.56 7.58-.804v53.348c0 2.664-2.274 5.127-5.054 5.43-3.819.418-7.632.888-11.44 1.412-2.688.37-5.037-1.522-5.037-4.185V4.284c2.517-.379 5.036-.733 7.558-1.065M160.816 1.155c2.53.212 5.06.447 7.589.706v26.883c2.135.22 4.268.455 6.4.707V2.568c2.524.298 5.046.621 7.568.967v58.258c-2.522-.344-5.044-.667-7.568-.966V36.941c-2.132-.253-4.265-.489-6.4-.707V60.12c-2.528-.259-5.058-.494-7.59-.707V1.155M204.978 47.98v10.07c2.113.411 4.224.84 6.332 1.285v-18.81c-2.94-.62-5.885-1.207-8.835-1.762-2.923-.55-5.015-3.325-5.015-5.823V10.886c0-2.911 2.009-4.648 5.015-4.083 3.784.712 7.562 1.478 11.33 2.297 2.827.615 4.982 3.198 4.982 6.026v12.235c-2.488-.574-4.98-1.123-7.477-1.65v-9.655c-2.108-.444-4.219-.872-6.332-1.283V31.75c2.947.573 5.89 1.18 8.827 1.818 2.827.615 4.982 3.447 4.982 6.109v23.887c0 2.663-2.24 4.39-4.982 3.793-3.768-.819-7.546-1.584-11.33-2.297-2.672-.503-5.015-3.157-5.015-5.82V46.588c2.51.44 5.016.903 7.518 1.39M245.652 34.852v-9.987c-2.073-.628-4.15-1.24-6.229-1.835v43.278c2.08.594 4.156 1.206 6.23 1.834v-10.07c2.455.744 4.904 1.511 7.347 2.302v12.65c0 2.664-2.199 4.196-4.894 3.36-3.704-1.147-7.421-2.242-11.149-3.281-2.63-.736-4.94-3.594-4.94-6.256V18.49c0-2.663 2.31-4.383 4.94-3.647 3.728 1.04 7.445 2.134 11.149 3.282 2.778.86 4.894 3.881 4.894 6.544v12.484c-2.443-.79-4.892-1.558-7.348-2.302M98.672.387L98.672 19.64 105.939 19.64 105.939 30.164 115.63 30.164 115.625 42.395 110.834 42.395 110.834 59.23 137.166 59.23 137.166 42.416 132.383 42.416 132.383 30.164 141.998 30.164 141.986 19.64 149.167 19.64 149.167.387 98.672.387" transform="translate(0 .182)"/>
        <path fill="#1A1919" d="M98.672 0.387L98.672 19.64 105.939 19.64 105.939 30.164 115.63 30.164 115.625 42.395 110.834 42.395 110.834 59.23 137.166 59.23 137.166 42.416 132.383 42.416 132.383 30.164 141.998 30.164 141.986 19.64 149.167 19.64 149.167 0.387 98.672 0.387" transform="translate(0 .182)"/>
        <path fill="#ABACAB" d="M100.033 1.649L100.033 18.358 112.102 18.358 112.102 13.895 117.029 13.895 118.183 12.729 118.183 19.616 131.212 19.616 131.212 13.895 136.001 13.895 136.001 18.358 148.015 18.358 148.015 1.649 100.033 1.649" transform="translate(0 .182)"/>
        <path fill="#FFFFFE" d="M136.002 13.895L136.002 18.355 137.086 17.096 137.086 12.707 136.002 13.895" transform="translate(0 .182)"/>
        <path fill="#CD2B2B" d="M101.399 2.912L101.399 17.093 105.986 12.544 105.986 7.585 141.998 7.585 137.084 12.707 137.084 17.093 146.858 17.093 146.858 2.912 101.399 2.912" transform="translate(0 .182)"/>
        <path fill="#CD2B2B" d="M118.183 19.614L124.171 19.614 124.171 7.585 118.183 12.729 118.183 19.614" transform="translate(0 .182)"/>
        <path fill="#1A1919" d="M130.042 19.614L130.042 12.704 137.086 12.704 141.998 7.585 124.171 7.585 124.171 19.614 130.042 19.614M141.998 7.585L141.998 12.458 137.086 17.096 146.858 17.096 146.858 2.912 141.998 7.585" transform="translate(0 .182)"/>
        <path fill="#ABACAB" d="M114.651 28.88L114.651 26.418 120.556 26.418 121.689 25.343 113.463 25.343 113.463 27.719 108.574 27.719 107.482 28.88 114.651 28.88M127.665 26.417L130.043 26.417 130.043 44.761 134.857 44.761 134.857 56.857 113.254 56.857 112.126 57.971 136.009 57.971 136.009 43.676 131.214 43.676 131.214 26.417 133.582 26.417 133.582 28.878 140.702 28.878 140.702 19.615 139.587 20.729 139.587 27.718 134.725 27.718 134.725 25.344 126.475 25.344 126.475 48.264 130.04 48.264 130.04 53.101 118.209 53.101 117.041 54.281 131.26 54.281 131.26 47.142 127.665 47.142 127.665 26.417" transform="translate(0 .182)"/>
        <path fill="#1A1919" d="M113.463 25.343L121.687 25.343 124.051 23.066 111.078 23.066 111.078 25.346 108.577 27.717 113.463 27.717 113.463 25.343M101.399 17.094L105.986 12.543 105.986 7.585 124.172 7.585 118.183 12.729 110.947 12.729 110.947 17.094 101.399 17.094" transform="translate(0 .182)"/>
        <path fill="#CD2B2B" d="M108.576 27.717L108.576 20.729 139.589 20.729 137.263 23.063 111.079 23.063 111.079 25.346 108.576 27.717M126.49 48.265L124.051 50.646 127.745 50.646 130.045 48.265 126.49 48.265M134.727 27.717L134.727 25.343 137.263 23.063 137.263 25.346 134.727 27.717" transform="translate(0 .182)"/>
        <path fill="#FFFFFE" d="M100.033 1.649L100.033 18.356 101.399 17.097 101.399 2.913 146.859 2.913 148.015 1.649 100.033 1.649M117.029 13.896L118.183 12.729 118.183 19.613 140.701 19.613 139.589 20.728 108.574 20.728 108.574 27.719 107.482 28.88 107.482 19.613 117.029 19.613 117.029 13.896M133.582 26.417L133.582 28.879 134.725 27.718 134.725 25.344 133.582 26.417" transform="translate(0 .182)"/>
        <path fill="#FFFFFE" d="M118.183 26.417L116.997 26.417 116.997 43.662 112.125 43.662 112.125 57.971 113.256 56.857 113.256 44.745 118.183 44.745 118.183 26.417" transform="translate(0 .182)"/>
        <path fill="#CD2B2B" d="M127.665 47.143L131.263 47.138 131.263 48.141 134.857 44.791 134.857 44.762 130.043 44.762 127.665 47.143" transform="translate(0 .182)"/>
        <path fill="#FFFFFE" d="M127.677 47.138L126.492 48.265 130.043 48.265 131.258 47.138 127.677 47.138" transform="translate(0 .182)"/>
        <path fill="#CD2B2B" d="M121.689 25.343L121.689 48.284 118.21 48.284 118.21 53.1 120.511 50.645 124.051 50.645 124.051 23.066 121.689 25.343" transform="translate(0 .182)"/>
        <path fill="#CD2B2B" d="M118.183 26.417L118.183 44.745 113.256 44.745 113.256 56.857 117.041 52.958 117.041 47.142 120.558 47.142 120.558 26.417 118.183 26.417" transform="translate(0 .182)"/>
        <path fill="#FFFFFE" d="M121.689 25.343L120.556 26.416 120.556 47.142 117.041 47.142 117.041 54.283 118.21 53.1 118.21 48.284 121.689 48.284 121.689 25.343" transform="translate(0 .182)"/>
        <path fill="#1A1919" d="M140.084 59.09c-.6 0-1.082-.485-1.082-1.077 0-.599.483-1.08 1.082-1.08.596 0 1.081.481 1.081 1.08 0 .592-.485 1.078-1.081 1.078m0-2.352c-.708 0-1.282.57-1.282 1.274 0 .7.574 1.27 1.282 1.27.703 0 1.276-.57 1.276-1.27 0-.705-.573-1.274-1.276-1.274" transform="translate(0 .182)"/>
        <path fill="#1A1919" d="M140.227 57.805c-.012.025-.029.047-.052.064-.022.02-.05.034-.085.04-.035.006-.08.008-.127.008h-.1v-.38h.115c.043 0 .077.003.104.006.027.002.052.007.074.016.031.015.053.034.067.062.015.022.022.054.022.09 0 .037-.007.07-.018.094m.31.125c.053-.064.077-.155.077-.263 0-.079-.017-.14-.046-.19-.03-.05-.07-.087-.121-.12-.05-.033-.104-.053-.164-.065-.058-.008-.127-.013-.206-.013h-.574v1.417h.36v-.52h.128l.394.52h.437l-.479-.604c.082-.04.146-.093.194-.162" transform="translate(0 .182)"/>
    </g>
</svg>
